PathFileType	4	(X/Y/Z)	/Users/itak/Documents/Research/Walk-IL/dataset/trc/00504_00183.trc
DataRate	CameraRate	NumFrames	NumMarkers	Units	OrigDataRate	OrigDataStartFrame	OrigNumFrames
100.000000	100.000000	4	53	mm	100.000000	179	719
Frame#	Time	RPSI			LPSI			L3			STRN			T10			C7			CLAV			RBAK			LBAK			LSHO			LUPA			LAEL			LAOL			LWTS			LWPS			LFRA			LIFD			LHPS			LHTS			RSHO			RUPA			RAEL			RAOL			RWTS			RWPS			RFRA			RIFD			RHTS			RHPS			RBHD			LFHD			RFHD			LBHD			LHIP			RHIP			RASI			LASI			LKNE			LTHI			LANK			LTIP			LTOE			LMT1			LMT5			LHEE			RKNE			RTHI			RANK			RTIP			RTOE			RMT1			RMT5			RHEE			
		X1	Y1	Z1	X2	Y2	Z2	X3	Y3	Z3	X4	Y4	Z4	X5	Y5	Z5	X6	Y6	Z6	X7	Y7	Z7	X8	Y8	Z8	X9	Y9	Z9	X10	Y10	Z10	X11	Y11	Z11	X12	Y12	Z12	X13	Y13	Z13	X14	Y14	Z14	X15	Y15	Z15	X16	Y16	Z16	X17	Y17	Z17	X18	Y18	Z18	X19	Y19	Z19	X20	Y20	Z20	X21	Y21	Z21	X22	Y22	Z22	X23	Y23	Z23	X24	Y24	Z24	X25	Y25	Z25	X26	Y26	Z26	X27	Y27	Z27	X28	Y28	Z28	X29	Y29	Z29	X30	Y30	Z30	X31	Y31	Z31	X32	Y32	Z32	X33	Y33	Z33	X34	Y34	Z34	X35	Y35	Z35	X36	Y36	Z36	X37	Y37	Z37	X38	Y38	Z38	X39	Y39	Z39	X40	Y40	Z40	X41	Y41	Z41	X42	Y42	Z42	X43	Y43	Z43	X44	Y44	Z44	X45	Y45	Z45	X46	Y46	Z46	X47	Y47	Z47	X48	Y48	Z48	X49	Y49	Z49	X50	Y50	Z50	X51	Y51	Z51	X52	Y52	Z52	X53	Y53	Z53	

180	1.79	-1157.619873046875	971.232666015625	-461.7859802246094	-1097.536254882812	968.9002685546875	-569.4085693359375	-1121.680053710938	1043.206665039062	-518.5028076171875	-915.2243041992188	1199.426391601562	-423.4017944335938	-1131.359130859375	1147.502807617188	-518.3688354492188	-1087.163208007812	1376.390380859375	-493.7207946777344	-946.7847290039062	1295.234252929688	-436.7362670898438	-1168.03173828125	1255.471313476562	-436.6738586425781	-1077.030517578125	1324.594116210938	-585.5108032226562	-958.859375	1368.014404296875	-614.2780151367188	-948.6724243164062	1242.600952148438	-677.0703735351562	-935.441650390625	1032.029663085938	-696.9820556640625	-1031.179931640625	1026.609252929688	-671.3048095703125	-879.6205444335938	843.6533203125	-625.56640625	-933.5374755859375	808.8232421875	-695.1798095703125	-922.4605102539062	948.2357788085938	-691.4850463867188	-881.37841796875	686.9029541015625	-609.8784790039062	-914.3924560546875	754.0906982421875	-679.6575927734375	-863.0079345703125	764.5985717773438	-636.6439819335938	-1094.545166015625	1367.162109375	-335.8038330078125	-1133.119262695312	1299.845825195312	-290.0469055175781	-1140.370483398438	1031.317138671875	-247.1581878662109	-1179.730590820312	1015.268005371094	-298.3054504394531	-1029.059692382812	832.4297485351562	-251.1409454345703	-1114.2255859375	807.5447998046875	-228.8298797607422	-1136.794799804688	977.0047607421875	-239.4183349609375	-1021.646179199219	673.3087158203125	-248.7658386230469	-1019.489440917969	739.6255493164062	-223.2332458496094	-1090.40625	734.8338012695312	-221.3533782958984	-1075.094604492188	1530.18115234375	-390.9425048828125	-889.3587646484375	1580.494384765625	-447.7615356445312	-953.2521362304688	1566.752685546875	-338.0531921386719	-1008.602172851562	1545.240478515625	-535.177001953125	-934.10986328125	888.7804565429688	-623.37451171875	-1129.000732421875	877.9443359375	-297.0233459472656	-1010.041809082031	922.9700317382812	-306.8297424316406	-890.2069702148438	924.2842407226562	-517.1810302734375	-961.403564453125	466.0268249511719	-559.542236328125	-931.2031860351562	622.6375732421875	-581.9558715820312	-1084.196044921875	49.57149505615234	-572.9392700195312	-996.5418701171875	315.2947998046875	-568.6768798828125	-926.9422607421875	38.16762542724609	-437.1175231933594	-1010.834777832031	42.42531204223633	-439.797607421875	-979.800048828125	45.08563232421875	-536.5936889648438	-1152.4775390625	46.240966796875	-535.1236572265625	-1059.27783203125	494.6781921386719	-286.1273498535156	-1098.464111328125	750.5655517578125	-272.5496215820312	-1175.880615234375	67.34700775146484	-306.6331481933594	-1062.096923828125	347.8346252441406	-281.5901184082031	-978.0219116210938	48.54313659667969	-284.8726806640625	-1027.14697265625	53.59079360961914	-341.9452514648438	-1076.0595703125	49.45125961303711	-256.31005859375	-1212.34814453125	67.148681640625	-368.2002868652344	
181	1.8	-1157.192993164062	971.2216796875	-463.1338195800781	-1097.091064453125	968.9249267578125	-570.7207641601562	-1120.79541015625	1043.536743164062	-519.8844604492188	-914.0697021484375	1199.299560546875	-424.2837829589844	-1130.091430664062	1147.839111328125	-519.7097778320312	-1085.583862304688	1376.626220703125	-494.8591613769531	-945.5618286132812	1295.104370117188	-437.6205444335938	-1166.87158203125	1255.859985351562	-438.1471252441406	-1075.31787109375	1324.856567382812	-586.6166381835938	-957.000244140625	1368.128051757812	-615.0853881835938	-946.8479614257812	1242.8037109375	-678.0286254882812	-933.8330078125	1032.219360351562	-698.173583984375	-1029.727783203125	1026.98974609375	-672.892822265625	-878.7503662109375	843.5504150390625	-626.8139038085938	-932.4114990234375	808.9703979492188	-696.7693481445312	-921.0245361328125	948.4100341796875	-692.752685546875	-879.9674682617188	686.9962158203125	-611.0552368164062	-913.4677124023438	754.1792602539062	-681.30322265625	-861.5196533203125	764.6941528320312	-637.7926635742188	-1093.410888671875	1367.263061523438	-337.0021667480469	-1132.219482421875	1299.943969726562	-291.4083251953125	-1139.845581054688	1031.3408203125	-248.9683685302734	-1179.062255859375	1015.36376953125	-300.2437438964844	-1028.164306640625	832.8428344726562	-252.4107513427734	-1113.346069335938	807.613525390625	-230.5646362304688	-1136.249145507812	977.0206909179688	-241.2836608886719	-1019.918701171875	673.8046875	-249.6514434814453	-1018.34814453125	740.1898193359375	-224.2547607421875	-1089.237426757812	735.0441284179688	-222.8506011962891	-1073.238891601562	1530.169189453125	-391.4919128417969	-887.2872314453125	1580.074340820312	-447.8662719726562	-951.33935546875	1566.1728515625	-338.3274536132812	-1006.494384765625	1545.545654296875	-535.5819091796875	-933.6276245117188	888.5471801757812	-624.4962158203125	-1128.510620117188	878.218994140625	-297.9769897460938	-1009.726745605469	923.321533203125	-308.1123352050781	-889.60791015625	924.1878051757812	-518.3545532226562	-961.0720825195312	465.8894653320312	-560.198486328125	-930.87060546875	622.4512939453125	-582.81201171875	-1084.1904296875	49.51007843017578	-572.9945068359375	-996.3611450195312	315.175048828125	-569.103759765625	-926.9578247070312	38.17118072509766	-437.1335144042969	-1010.891357421875	42.40730667114258	-439.8443908691406	-979.7960205078125	45.0651969909668	-536.63525390625	-1152.476928710938	46.22529602050781	-535.1758422851562	-1054.61572265625	495.5621337890625	-286.08349609375	-1096.818725585938	750.8643798828125	-273.5797424316406	-1174.905883789062	69.67134094238281	-307.5944213867188	-1058.103759765625	348.9373779296875	-281.4090576171875	-977.686279296875	48.53396224975586	-283.8713073730469	-1025.974853515625	54.11935424804688	-341.5538635253906	-1075.914306640625	50.37681579589844	-256.4787902832031	-1210.723510742188	69.98644256591797	-369.4848022460938	
182	1.81	-1156.723266601562	971.2439575195312	-464.3618774414062	-1096.606567382812	968.9732055664062	-571.9232177734375	-1119.884399414062	1043.820678710938	-521.15869140625	-912.9517822265625	1199.17333984375	-425.1326293945312	-1128.878173828125	1148.165405273438	-521.0162353515625	-1084.019775390625	1376.853271484375	-495.9537658691406	-944.3554077148438	1294.979736328125	-438.4465637207031	-1165.7099609375	1256.2431640625	-439.5630187988281	-1073.625366210938	1325.103637695312	-587.6825561523438	-955.1717529296875	1368.24267578125	-615.86328125	-945.0344848632812	1243.001220703125	-678.9488525390625	-932.1957397460938	1032.411499023438	-699.3189086914062	-1028.28369140625	1027.371826171875	-674.4244384765625	-877.858642578125	843.4075317382812	-628.0496215820312	-931.27734375	809.1058349609375	-698.3321533203125	-919.5752563476562	948.56884765625	-693.9915771484375	-878.5283203125	687.1213989257812	-612.2389526367188	-912.55859375	754.2545776367188	-682.9346923828125	-860.0037231445312	764.8216552734375	-638.9485473632812	-1092.278076171875	1367.369873046875	-338.1570434570312	-1131.339965820312	1300.063354492188	-292.735595703125	-1139.432983398438	1031.392456054688	-250.7568664550781	-1178.443969726562	1015.487243652344	-302.201904296875	-1027.255249023438	833.3585815429688	-253.4984130859375	-1112.442504882812	807.7272338867188	-232.1691284179688	-1135.80126953125	977.0686645507812	-243.1310272216797	-1018.079711914062	674.4107666015625	-250.3769073486328	-1017.1318359375	740.8576049804688	-225.1082611083984	-1087.989379882812	735.3162231445312	-224.1922149658203	-1071.41015625	1530.167846679688	-392.0235595703125	-885.2405395507812	1579.66162109375	-447.9601745605469	-949.449462890625	1565.60888671875	-338.597900390625	-1004.429321289062	1545.850219726562	-535.973388671875	-933.1497192382812	888.3457641601562	-625.5706176757812	-1127.9189453125	878.5184936523438	-298.8330993652344	-1009.307006835938	923.6527099609375	-309.3609008789062	-888.9797973632812	924.071044921875	-519.5243530273438	-960.7640991210938	465.7717895507812	-560.8502807617188	-930.5449829101562	622.2657470703125	-583.6690063476562	-1084.179321289062	49.45426940917969	-573.0379028320312	-996.1790161132812	315.0713500976562	-569.531494140625	-926.9719848632812	38.17463684082031	-437.1531982421875	-1010.932495117188	42.40479278564453	-439.8873901367188	-979.793701171875	45.05061721801758	-536.6796264648438	-1152.4775390625	46.20800399780273	-535.2262573242188	-1049.99560546875	496.4852905273438	-285.9509582519531	-1095.098876953125	751.2172241210938	-274.5450744628906	-1173.805786132812	72.05014038085938	-308.6252746582031	-1054.199584960938	350.1158142089844	-281.2239379882812	-977.2797241210938	48.56819534301758	-282.7420959472656	-1024.642578125	54.68196868896484	-341.0714416503906	-1075.69873046875	51.42233276367188	-256.6430358886719	-1208.872192382812	72.80085754394531	-370.8838806152344	
183	1.82	-1156.21435546875	971.281005859375	-465.469482421875	-1096.083984375	969.0311889648438	-573.0161743164062	-1118.951416015625	1044.067626953125	-522.3248901367188	-911.8609008789062	1199.043212890625	-425.9519653320312	-1127.711059570312	1148.478515625	-522.2836303710938	-1082.466552734375	1377.068603515625	-497.0018920898438	-943.155517578125	1294.858276367188	-439.2204895019531	-1164.541870117188	1256.613647460938	-440.9167175292969	-1071.952514648438	1325.330810546875	-588.7081298828125	-953.3729858398438	1368.354248046875	-616.61474609375	-943.232666015625	1243.18310546875	-679.8331298828125	-930.5352172851562	1032.599243164062	-700.4212036132812	-1026.859375	1027.741455078125	-675.903564453125	-876.9473876953125	843.2281494140625	-629.2734985351562	-930.12744140625	809.22412109375	-699.8597412109375	-918.1138916015625	948.7047729492188	-695.200927734375	-877.0928344726562	687.2769775390625	-613.4326782226562	-911.6627197265625	754.316650390625	-684.5473022460938	-858.4921875	764.9796752929688	-640.1146240234375	-1091.13818359375	1367.477783203125	-339.2635498046875	-1130.470825195312	1300.198486328125	-294.0244140625	-1139.12744140625	1031.47265625	-252.4939117431641	-1177.875244140625	1015.629638671875	-304.1432800292969	-1026.325439453125	833.97216796875	-254.3946075439453	-1111.501953125	807.8892211914062	-233.6128692626953	-1135.445678710938	977.146728515625	-244.9247131347656	-1016.147827148438	675.1173095703125	-250.9452362060547	-1015.834228515625	741.6143798828125	-225.7945098876953	-1086.659301757812	735.6441040039062	-225.3610382080078	-1069.609741210938	1530.168823242188	-392.5422058105469	-883.2215576171875	1579.264038085938	-448.0442199707031	-947.5902099609375	1565.0625	-338.8624877929688	-1002.402954101562	1546.147216796875	-536.3519287109375	-932.6717529296875	888.1721801757812	-626.5958862304688	-1127.2255859375	878.8270263671875	-299.6069946289062	-1008.78271484375	923.955810546875	-310.57421875	-888.3196411132812	923.9342041015625	-520.6831665039062	-960.48974609375	465.6648864746094	-561.5157470703125	-930.2261352539062	622.0792236328125	-584.5289306640625	-1084.164794921875	49.40208053588867	-573.0750732421875	-996.0052490234375	314.9755249023438	-569.9700317382812	-926.9859619140625	38.17800140380859	-437.1766357421875	-1010.956787109375	42.41514205932617	-439.9278259277344	-979.7935180664062	45.03615188598633	-536.7303466796875	-1152.478637695312	46.19094085693359	-535.2749633789062	-1045.437866210938	497.438232421875	-285.7571105957031	-1093.32568359375	751.6132202148438	-275.4202575683594	-1172.542602539062	74.446533203125	-309.70263671875	-1050.380615234375	351.352294921875	-281.032958984375	-976.75439453125	48.67664337158203	-281.4839477539062	-1023.121398925781	55.27667999267578	-340.4888000488281	-1075.368041992188	52.60597229003906	-256.7793273925781	-1206.776000976562	75.53866577148438	-372.3625183105469	
